<svg width="17" height="12" viewBox="0 0 17 12" fill="none" xmlns="http://www.w3.org/2000/svg">
<path d="M6.05018 9.15L14.5252 0.675C14.7252 0.475 14.9585 0.375 15.2252 0.375C15.4918 0.375 15.7252 0.475 15.9252 0.675C16.1252 0.875 16.2252 1.11267 16.2252 1.388C16.2252 1.66333 16.1252 1.90067 15.9252 2.1L6.75018 11.3C6.55018 11.5 6.31685 11.6 6.05018 11.6C5.78351 11.6 5.55018 11.5 5.35018 11.3L1.05018 7C0.85018 6.8 0.75418 6.56267 0.76218 6.288C0.77018 6.01333 0.874513 5.77567 1.07518 5.575C1.27585 5.37433 1.51351 5.27433 1.78818 5.275C2.06285 5.27567 2.30018 5.37567 2.50018 5.575L6.05018 9.15Z" fill="#F0EFEF"/>
</svg>
