<svg width="60" height="60" viewBox="0 0 60 60" fill="none" xmlns="http://www.w3.org/2000/svg">
<path d="M23.7179 2.07004C22.485 2.37536 20.9692 3.70972 20.0304 5.31547C17.6324 9.40901 16.7162 16.5105 17.8021 22.7187C18.0057 23.906 18.492 25.7945 18.854 26.8122L19.0237 27.2871L13.6281 27.3211L8.23259 27.355L7.55391 27.6829C6.64899 28.1239 5.34818 29.4583 4.64687 30.6457C3.54966 32.5115 2.74655 35.0332 2.27147 38.0638C1.90951 40.4046 1.90951 44.9504 2.27147 47.2912C2.74655 50.3218 3.54966 52.8435 4.64687 54.7093C5.34818 55.8967 6.64899 57.231 7.55391 57.6721L8.23259 58H15.076H21.9194L22.5642 57.6834C25.7653 56.1115 27.9371 50.661 28.1633 43.6387C28.2764 39.8844 27.8127 36.492 26.7381 33.3709L26.5118 32.7264H30.0071H33.5023L33.3326 33.2013C32.2467 36.2432 31.7377 39.8392 31.8508 43.5821C31.9979 48.1393 32.9141 51.9841 34.509 54.7093C35.2103 55.8967 36.5111 57.231 37.416 57.6721L38.0947 58H44.9381H51.7815L52.4263 57.6834C55.0505 56.3942 56.9622 52.5495 57.7879 46.918C58.0707 45.007 58.0707 40.348 57.7879 38.437C56.9622 32.8055 55.0505 28.9607 52.4263 27.6716L51.7815 27.355L46.8385 27.3211L41.8954 27.2871L42.1216 26.6426C43.1962 23.5329 43.66 20.1404 43.5468 16.3861C43.3206 9.36378 41.1488 3.91327 37.9477 2.34143L37.3029 2.02481L30.6858 2.00219C27.0435 1.99088 23.9102 2.02481 23.7179 2.07004ZM25.4599 4.00373C26.1159 4.29774 27.0209 5.25893 27.6204 6.31059C30.3238 11.0374 30.7876 20.0386 28.6384 26.1337C27.9597 28.0448 27.0209 29.5827 26.082 30.2951L25.573 30.6909L25.03 29.9219C24.0233 28.4971 22.7112 27.5246 21.5122 27.3437C21.2407 27.2985 20.9806 27.208 20.9353 27.1401C20.7204 26.8235 19.9173 24.1435 19.6684 22.877C19.2386 20.7624 19.1029 18.9531 19.182 16.4992C19.3517 11.2635 20.6525 6.85337 22.6207 4.82922C23.5935 3.8228 24.4871 3.56271 25.4599 4.00373ZM37.2238 4.00373C38.9883 4.80661 40.6624 8.19904 41.3637 12.3717C42.4949 19.1227 41.1262 26.914 38.2983 29.8541C37.269 30.9284 37.3934 30.9171 32.4164 30.9171H28.0841L28.5705 30.2499C30.7536 27.2985 31.9753 21.961 31.783 16.273C31.6133 11.3314 30.4708 7.14738 28.5818 4.47867L28.0728 3.77757H32.4051C36.4659 3.77757 36.7713 3.80018 37.2238 4.00373ZM10.0764 29.3339C11.1396 29.8089 12.3386 31.4825 13.1078 33.5179C15.0194 38.5953 15.1212 45.7985 13.3567 51.102C12.2142 54.5623 10.4723 56.5073 8.80947 56.202C8.25521 56.1002 7.4521 55.5235 6.89784 54.8111C5.50654 53.0697 4.49982 50.1635 3.96819 46.3526C3.75327 44.8034 3.7872 40.2236 4.02474 38.55C4.56769 34.807 5.77801 31.6634 7.23719 30.1594C8.20997 29.153 9.10357 28.8929 10.0764 29.3339ZM21.8402 29.3339C23.6048 30.1368 25.2789 33.5292 25.9802 37.7019C27.1113 44.4529 25.7427 52.2442 22.9148 55.1843C21.8855 56.2585 22.0099 56.2472 17.0216 56.2472H12.6893L13.187 55.5348C14.6462 53.4881 15.6076 50.7063 16.1619 46.918C16.4447 45.007 16.4447 40.348 16.1619 38.437C15.6189 34.6827 14.6349 31.833 13.1983 29.8089L12.6893 29.1078H17.0216C21.0824 29.1078 21.3878 29.1304 21.8402 29.3339ZM51.7024 29.3339C53.4669 30.1368 55.141 33.5292 55.8423 37.7019C56.9735 44.4529 55.6048 52.2442 52.777 55.1843C51.7476 56.2585 51.872 56.2472 46.8837 56.2472H42.5514L43.0491 55.5348C44.5083 53.4881 45.4698 50.7063 46.024 46.918C46.3408 44.8373 46.3068 40.2349 45.9675 38.0638C45.6621 36.0283 45.187 34.2077 44.5988 32.7037C44.0898 31.4372 43.807 30.8944 43.0604 29.8089L42.5741 29.1078H46.895C50.9445 29.1078 51.2499 29.1304 51.7024 29.3339ZM42.1216 31.6973C43.0718 33.3483 43.8296 35.8361 44.2142 38.5727C44.4631 40.3254 44.5083 44.7582 44.2821 46.3526C43.4111 52.5608 41.0923 56.6543 38.6716 56.202C37.3369 55.9532 35.8438 53.9743 34.9275 51.2377C34.1244 48.8517 33.7738 46.6466 33.6607 43.5256C33.5815 41.0717 33.7172 39.2624 34.147 37.1478C34.3959 35.8813 35.1877 33.2013 35.4139 32.8847C35.4592 32.8168 35.8777 32.7264 36.3415 32.7037C36.8052 32.6698 37.2803 32.602 37.3821 32.5567C37.5292 32.5002 37.4726 32.6585 37.1898 33.1334C35.3347 36.2093 34.871 45.007 36.2849 49.9939C37.1785 53.1375 38.7508 54.3249 40.2665 53.0357C42.3365 51.2604 43.298 43.4804 42.2234 37.1931C41.6691 33.9816 40.6059 32.0252 39.3164 31.8556L38.8639 31.7991L39.3616 31.3355C39.6331 31.0867 40.0403 30.623 40.2665 30.3177L40.685 29.7523L41.1601 30.3064C41.4316 30.6117 41.8614 31.2337 42.1216 31.6973ZM39.5765 34.3886C40.1421 35.5986 40.6285 38.0525 40.8208 40.7212L40.8887 41.7728H39.0562H37.2238L37.3029 40.7212C37.5292 37.5775 38.0495 35.0898 38.7169 34.0042C39.011 33.5179 39.2033 33.6084 39.5765 34.3886ZM40.8208 44.6225C40.5946 47.6983 40.0064 50.4349 39.3503 51.4413C39.1014 51.8258 38.8865 51.7014 38.5359 50.9663C37.9703 49.7564 37.4839 47.3025 37.2916 44.6225L37.2238 43.5821H39.0562H40.8887L40.8208 44.6225Z" fill="#202022"/>
<path d="M23.8426 6.66155C23.2658 6.96687 22.8812 7.41919 22.4853 8.24468C21.6256 9.99744 21.1166 12.7566 21.0035 16.2169C20.8112 21.724 21.8405 26.4734 23.4807 27.7964C23.854 28.1017 24.0123 28.147 24.5779 28.147C25.1435 28.147 25.3018 28.1017 25.6751 27.7964C26.58 27.0727 27.3266 25.2747 27.7451 22.8435C28.8423 16.3752 27.8356 8.64047 25.6864 6.91033C25.1661 6.49193 24.363 6.39015 23.8426 6.66155ZM25.0982 9.05887C25.6638 10.2688 26.1502 12.7227 26.3425 15.3914L26.4103 16.4431H24.5779H22.7454L22.8246 15.3914C23.0508 12.2478 23.5712 9.75997 24.2385 8.67439C24.5326 8.18814 24.7249 8.27861 25.0982 9.05887ZM26.3425 19.2927C26.1162 22.3685 25.528 25.1051 24.872 26.1115C24.6231 26.496 24.4082 26.3716 24.0576 25.6366C23.492 24.4266 23.0056 21.9727 22.8133 19.2927L22.7454 18.2524H24.5779H26.4103L26.3425 19.2927Z" fill="#202022"/>
<path d="M8.45983 31.9909C7.88295 32.2962 7.49836 32.7485 7.10246 33.574C6.24279 35.3268 5.73378 38.086 5.62066 41.5463C5.42837 47.0533 6.45771 51.8027 8.09786 53.1258C8.47114 53.4311 8.6295 53.4763 9.19507 53.4763C9.76064 53.4763 9.919 53.4311 10.2923 53.1258C11.1972 52.402 11.9437 50.6041 12.3623 48.1728C13.4595 41.7046 12.4528 33.9698 10.3036 32.2397C9.78327 31.8213 8.98016 31.7195 8.45983 31.9909ZM9.7154 34.3882C10.281 35.5982 10.7674 38.052 10.9597 40.7208L11.0275 41.7724H9.19507H7.36262L7.4418 40.7208C7.66803 37.5771 8.18836 35.0893 8.85573 34.0037C9.14983 33.5175 9.34212 33.608 9.7154 34.3882ZM10.9597 44.6221C10.7334 47.6979 10.1452 50.4344 9.48917 51.4409C9.24032 51.8253 9.0254 51.7009 8.67475 50.9659C8.10918 49.7559 7.62279 47.3021 7.43049 44.6221L7.36262 43.5817H9.19507H11.0275L10.9597 44.6221Z" fill="#202022"/>
</svg>
