<svg width="60" height="60" viewBox="0 0 60 60" fill="none" xmlns="http://www.w3.org/2000/svg">
<path d="M17.1662 24.3375C17.3187 25.8 18.2538 27.0137 19.5875 27.6275C22.3588 28.9012 27.225 30.9375 30 30.9375C32.775 30.9375 37.6413 28.9 40.4125 27.6275C41.7463 27.015 42.6812 25.7987 42.8337 24.3375C42.9825 22.9037 43.125 20.76 43.125 17.8125C43.125 14.865 42.9825 12.7212 42.8337 11.2875C42.6812 9.825 41.7462 8.61125 40.4112 7.9975C37.6412 6.72375 32.7762 4.6875 30 4.6875C27.225 4.6875 22.3588 6.725 19.5875 7.9975C18.2538 8.61 17.3187 9.82625 17.1662 11.2875C17.0175 12.7212 16.875 14.865 16.875 17.8125C16.875 20.76 17.0175 22.9037 17.1662 24.3375Z" stroke="#202022" stroke-width="2" stroke-linejoin="round"/>
<path d="M16.875 9.9375C16.875 9.9375 27.35 15.1875 30 15.1875C32.65 15.1875 43.125 9.9375 43.125 9.9375" stroke="#202022" stroke-width="2" stroke-linejoin="round"/>
<path d="M30 15.1875V30.9375" stroke="#202022" stroke-width="2" stroke-linecap="round" stroke-linejoin="round"/>
<path d="M4.04125 47.15C4.19375 48.6125 5.12875 49.8263 6.46375 50.44C9.23375 51.7138 14.1 53.75 16.875 53.75C19.65 53.75 24.5162 51.7125 27.2875 50.44C28.6212 49.8275 29.5563 48.6113 29.7088 47.15C29.8575 45.7163 30 43.5725 30 40.625C30 37.6775 29.8575 35.5338 29.7088 34.1C29.5563 32.6375 28.6212 31.4238 27.2875 30.81C24.5162 29.5363 19.65 27.5 16.875 27.5C14.1 27.5 9.23375 29.5375 6.4625 30.81C5.12875 31.4225 4.19375 32.6388 4.04125 34.1C3.8925 35.5338 3.75 37.6775 3.75 40.625C3.75 43.5725 3.8925 45.7163 4.04125 47.15Z" stroke="#202022" stroke-width="2" stroke-linejoin="round"/>
<path d="M3.75 32.75C3.75 32.75 14.225 38 16.875 38C19.525 38 30 32.75 30 32.75" stroke="#202022" stroke-width="2" stroke-linejoin="round"/>
<path d="M16.875 38V53.75" stroke="#202022" stroke-width="2" stroke-linecap="round" stroke-linejoin="round"/>
<path d="M30.2912 47.15C30.4437 48.6125 31.3788 49.8263 32.7125 50.44C35.485 51.7138 40.35 53.75 43.125 53.75C45.9 53.75 50.7663 51.7125 53.5375 50.44C54.8713 49.8275 55.8062 48.6113 55.9587 47.15C56.1075 45.7163 56.25 43.5725 56.25 40.625C56.25 37.6775 56.1075 35.5338 55.9587 34.1C55.8062 32.6375 54.8712 31.4238 53.5362 30.81C50.7662 29.5363 45.9025 27.5 43.125 27.5C40.35 27.5 35.4838 29.5375 32.7125 30.81C31.3788 31.4225 30.4437 32.6388 30.2912 34.1C30.1425 35.5338 30 37.6775 30 40.625C30 43.5725 30.1425 45.7163 30.2912 47.15Z" stroke="#202022" stroke-width="2" stroke-linejoin="round"/>
<path d="M30 32.75C30 32.75 40.475 38 43.125 38C45.775 38 56.25 32.75 56.25 32.75" stroke="#202022" stroke-width="2" stroke-linejoin="round"/>
<path d="M43.125 38V53.75" stroke="#202022" stroke-width="2" stroke-linecap="round" stroke-linejoin="round"/>
</svg>
