<svg width="58" height="58" viewBox="0 0 58 58" fill="none" xmlns="http://www.w3.org/2000/svg">
<g clip-path="url(#clip0_4059_26559)">
<path fill-rule="evenodd" clip-rule="evenodd" d="M7.57477 0.791748H17.5774C17.9842 0.791748 18.3814 0.915804 18.7159 1.14736C19.0503 1.37892 19.3062 1.70697 19.4494 2.08775L23.3321 12.4077C23.4601 12.749 23.4923 13.1188 23.4254 13.4771L21.4788 23.9091C23.8708 29.5304 27.8201 33.3091 34.3668 36.6984L44.6734 34.6984C45.0397 34.6278 45.4184 34.6611 45.7668 34.7944L56.1188 38.7411C56.4972 38.8852 56.823 39.1409 57.0529 39.4742C57.2829 39.8075 57.4063 40.2028 57.4068 40.6077V50.1651C57.4068 54.5011 53.5881 58.0184 49.1188 57.0451C40.9774 55.2744 25.8921 50.7704 15.3268 40.2051C5.20411 30.0851 1.81211 16.1064 0.67344 8.55175C0.0201063 4.23708 3.47877 0.791748 7.57477 0.791748Z" fill="#C3191F"/>
</g>
<defs>
<clipPath id="clip0_4059_26559">
<rect width="57.6048" height="56.8" fill="white" transform="translate(0.197266 0.600098)"/>
</clipPath>
</defs>
</svg>
