<svg width="60" height="60" viewBox="0 0 60 60" fill="none" xmlns="http://www.w3.org/2000/svg">
<path d="M52.925 40C54.2625 36.9375 55 33.55 55 30C55 16.1875 43.8125 5 30 5C16.1875 5 5 16.1875 5 30H30L30.0125 40C30.0125 44.8375 33.925 48.75 38.7625 48.75C43.6 48.75 47.5125 44.8375 47.5125 40H52.925Z" stroke="#202022" stroke-width="2" stroke-miterlimit="2" stroke-linecap="round" stroke-linejoin="round"/>
<path d="M38.75 42.5C40.125 42.5 41.25 41.375 41.25 40C41.25 38.625 40.125 37.5 38.75 37.5C37.375 37.5 36.25 38.625 36.25 40C36.25 41.375 37.375 42.5 38.75 42.5Z" fill="#202022"/>
<path d="M30 40L7.5 45C10.2875 48.9625 13.0625 52.9625 17.5 55L32.5 46.25" stroke="#202022" stroke-width="2" stroke-miterlimit="2" stroke-linecap="round" stroke-linejoin="round"/>
</svg>
