<svg width="986" height="350" viewBox="0 0 986 350" fill="none" xmlns="http://www.w3.org/2000/svg">
<path d="M0.96 278.68V216.76L151.68 6.99998H250.08L103.68 216.76L58.56 203.32H321.12V278.68H0.96ZM178.56 343V278.68L181.44 203.32V146.2H271.2V343H178.56ZM488.734 349.72C459.934 349.72 434.334 342.84 411.934 329.08C389.854 315.32 372.414 295.48 359.614 269.56C346.814 243.64 340.414 212.12 340.414 175C340.414 137.88 346.814 106.36 359.614 80.44C372.414 54.52 389.854 34.68 411.934 20.92C434.334 7.15998 459.934 0.279978 488.734 0.279978C517.214 0.279978 542.494 7.15998 564.574 20.92C586.974 34.68 604.574 54.52 617.374 80.44C630.174 106.36 636.574 137.88 636.574 175C636.574 212.12 630.174 243.64 617.374 269.56C604.574 295.48 586.974 315.32 564.574 329.08C542.494 342.84 517.214 349.72 488.734 349.72ZM488.734 271.96C498.974 271.96 507.934 268.76 515.614 262.36C523.614 255.96 529.854 245.72 534.334 231.64C538.814 217.24 541.054 198.36 541.054 175C541.054 151.32 538.814 132.44 534.334 118.36C529.854 104.28 523.614 94.04 515.614 87.64C507.934 81.24 498.974 78.04 488.734 78.04C478.494 78.04 469.374 81.24 461.374 87.64C453.694 94.04 447.454 104.28 442.654 118.36C438.174 132.44 435.934 151.32 435.934 175C435.934 198.36 438.174 217.24 442.654 231.64C447.454 245.72 453.694 255.96 461.374 262.36C469.374 268.76 478.494 271.96 488.734 271.96ZM665.648 278.68V216.76L816.368 6.99998H914.768L768.368 216.76L723.247 203.32H985.808V278.68H665.648ZM843.248 343V278.68L846.128 203.32V146.2H935.888V343H843.248Z" fill="#C3191F"/>
</svg>
