<svg width="1920" height="144" viewBox="0 0 1920 144" fill="none" xmlns="http://www.w3.org/2000/svg">
<path d="M94.7057 54.6259L89.1745 49.0947L122.362 15.9074L91.9401 15.9074L91.9401 8.05305H135.747V51.8603L127.893 51.8603L127.893 21.4386L94.7057 54.6259Z" fill="#A5A4A4" fill-opacity="0.1"/>
<path d="M85.7318 52.5333L91.263 58.0645L58.0757 91.2518L88.4974 91.2518L88.4974 99.1061H44.6901V55.2989L52.5445 55.2989L52.5444 85.7206L85.7318 52.5333Z" fill="#A5A4A4" fill-opacity="0.1"/>
<path d="M267.046 54.6269L261.514 49.0957L294.702 15.9084L264.28 15.9084L264.28 8.05403H308.087V51.8613L300.233 51.8613L300.233 21.4396L267.046 54.6269Z" fill="#A5A4A4" fill-opacity="0.1"/>
<path d="M258.068 52.5323L263.599 58.0635L230.412 91.2508L260.833 91.2508L260.833 99.1052H217.026V55.2979L224.88 55.2979L224.88 85.7196L258.068 52.5323Z" fill="#A5A4A4" fill-opacity="0.1"/>
<path d="M439.389 54.6279L433.858 49.0967L467.045 15.9093L436.624 15.9093L436.624 8.055H480.431V51.8623L472.577 51.8623L472.577 21.4406L439.389 54.6279Z" fill="#A5A4A4" fill-opacity="0.1"/>
<path d="M430.419 52.5333L435.95 58.0645L402.763 91.2518L433.185 91.2518L433.185 99.1061H389.378V55.2989L397.232 55.2989L397.232 85.7206L430.419 52.5333Z" fill="#A5A4A4" fill-opacity="0.1"/>
<path d="M611.729 54.6259L606.198 49.0947L639.385 15.9074L608.964 15.9074L608.964 8.05305H652.771V51.8603L644.916 51.8603L644.916 21.4386L611.729 54.6259Z" fill="#A5A4A4" fill-opacity="0.1"/>
<path d="M602.755 52.5333L608.286 58.0645L575.099 91.2518L605.521 91.2518L605.521 99.1061H561.714V55.2989L569.568 55.2989L569.568 85.7206L602.755 52.5333Z" fill="#A5A4A4" fill-opacity="0.1"/>
<path d="M784.069 54.6269L778.538 49.0957L811.725 15.9084L781.303 15.9084L781.303 8.05403H825.111V51.8613L817.256 51.8613L817.256 21.4396L784.069 54.6269Z" fill="#A5A4A4" fill-opacity="0.1"/>
<path d="M775.095 52.5323L780.626 58.0635L747.439 91.2508L777.861 91.2508L777.861 99.1052H734.053V55.2979L741.908 55.2979L741.908 85.7196L775.095 52.5323Z" fill="#A5A4A4" fill-opacity="0.1"/>
<path d="M956.409 54.6259L950.878 49.0947L984.065 15.9074L953.643 15.9074L953.643 8.05305H997.451V51.8603L989.596 51.8603L989.596 21.4386L956.409 54.6259Z" fill="#A5A4A4" fill-opacity="0.1"/>
<path d="M947.435 52.5323L952.966 58.0635L919.779 91.2508L950.201 91.2508L950.201 99.1052H906.393V55.2979L914.248 55.2979L914.248 85.7196L947.435 52.5323Z" fill="#A5A4A4" fill-opacity="0.1"/>
<path d="M1128.75 54.6279L1123.22 49.0967L1156.4 15.9093L1125.98 15.9093L1125.98 8.055H1169.79V51.8623L1161.94 51.8623L1161.94 21.4406L1128.75 54.6279Z" fill="#A5A4A4" fill-opacity="0.1"/>
<path d="M1119.77 52.5342L1125.3 58.0655L1092.11 91.2528L1122.54 91.2528L1122.54 99.1071H1078.73V55.2998L1086.58 55.2998L1086.58 85.7216L1119.77 52.5342Z" fill="#A5A4A4" fill-opacity="0.1"/>
<path d="M1301.09 54.6259L1295.56 49.0947L1328.74 15.9074L1298.32 15.9074L1298.32 8.05305H1342.13V51.8603L1334.28 51.8603L1334.28 21.4386L1301.09 54.6259Z" fill="#A5A4A4" fill-opacity="0.1"/>
<path d="M1292.11 52.5333L1297.65 58.0645L1264.46 91.2518L1294.88 91.2518L1294.88 99.1061H1251.07V55.2989L1258.93 55.2989L1258.93 85.7206L1292.11 52.5333Z" fill="#A5A4A4" fill-opacity="0.1"/>
<path d="M1473.43 54.6269L1467.9 49.0957L1501.08 15.9084L1470.66 15.9084L1470.66 8.05403H1514.47V51.8613L1506.62 51.8613L1506.62 21.4396L1473.43 54.6269Z" fill="#A5A4A4" fill-opacity="0.1"/>
<path d="M1464.45 52.5333L1469.98 58.0645L1436.79 91.2518L1467.22 91.2518L1467.22 99.1061H1423.41V55.2989L1431.26 55.2989L1431.26 85.7206L1464.45 52.5333Z" fill="#A5A4A4" fill-opacity="0.1"/>
<path d="M1645.77 54.6269L1640.24 49.0957L1673.43 15.9084L1643.01 15.9084L1643.01 8.05403H1686.81V51.8613L1678.96 51.8613L1678.96 21.4396L1645.77 54.6269Z" fill="#A5A4A4" fill-opacity="0.1"/>
<path d="M1636.79 52.5333L1642.33 58.0645L1609.14 91.2518L1639.56 91.2518L1639.56 99.1061H1595.75V55.2989L1603.61 55.2989L1603.61 85.7206L1636.79 52.5333Z" fill="#A5A4A4" fill-opacity="0.1"/>
<path d="M1818.11 54.6269L1812.58 49.0957L1845.77 15.9084L1815.35 15.9084L1815.35 8.05403H1859.15V51.8613L1851.3 51.8613L1851.3 21.4396L1818.11 54.6269Z" fill="#A5A4A4" fill-opacity="0.1"/>
<path d="M1809.13 52.5342L1814.67 58.0655L1781.48 91.2528L1811.9 91.2528L1811.9 99.1071H1768.09V55.2998L1775.95 55.2998L1775.95 85.7216L1809.13 52.5342Z" fill="#A5A4A4" fill-opacity="0.1"/>
</svg>
