<svg width="110" height="24" viewBox="0 0 110 24" fill="none" xmlns="http://www.w3.org/2000/svg">
<path d="M11.06 23V19.85L10.76 19.16V13.52C10.76 12.52 10.45 11.74 9.83 11.18C9.23 10.62 8.3 10.34 7.04 10.34C6.18 10.34 5.33 10.48 4.49 10.76C3.67 11.02 2.97 11.38 2.39 11.84L0.71 8.57C1.59 7.95 2.65 7.47 3.89 7.13C5.13 6.79 6.39 6.62 7.67 6.62C10.13 6.62 12.04 7.2 13.4 8.36C14.76 9.52 15.44 11.33 15.44 13.79V23H11.06ZM6.14 23.24C4.88 23.24 3.8 23.03 2.9 22.61C2 22.17 1.31 21.58 0.83 20.84C0.35 20.1 0.11 19.27 0.11 18.35C0.11 17.39 0.34 16.55 0.8 15.83C1.28 15.11 2.03 14.55 3.05 14.15C4.07 13.73 5.4 13.52 7.04 13.52H11.33V16.25H7.55C6.45 16.25 5.69 16.43 5.27 16.79C4.87 17.15 4.67 17.6 4.67 18.14C4.67 18.74 4.9 19.22 5.36 19.58C5.84 19.92 6.49 20.09 7.31 20.09C8.09 20.09 8.79 19.91 9.41 19.55C10.03 19.17 10.48 18.62 10.76 17.9L11.48 20.06C11.14 21.1 10.52 21.89 9.62 22.43C8.72 22.97 7.56 23.24 6.14 23.24ZM19.6756 23V0.739999H24.3556V23H19.6756ZM36.5002 23.24C34.6002 23.24 33.1202 22.76 32.0602 21.8C31.0002 20.82 30.4702 19.37 30.4702 17.45V3.29H35.1502V17.39C35.1502 18.07 35.3302 18.6 35.6902 18.98C36.0502 19.34 36.5402 19.52 37.1602 19.52C37.9002 19.52 38.5302 19.32 39.0502 18.92L40.3102 22.22C39.8302 22.56 39.2502 22.82 38.5702 23C37.9102 23.16 37.2202 23.24 36.5002 23.24ZM27.9802 10.82V7.22H39.1702V10.82H27.9802ZM50.4493 23.24C48.6093 23.24 46.9893 22.88 45.5893 22.16C44.2093 21.44 43.1393 20.46 42.3793 19.22C41.6193 17.96 41.2393 16.53 41.2393 14.93C41.2393 13.31 41.6093 11.88 42.3493 10.64C43.1093 9.38 44.1393 8.4 45.4393 7.7C46.7393 6.98 48.2093 6.62 49.8493 6.62C51.4293 6.62 52.8493 6.96 54.1093 7.64C55.3893 8.3 56.3993 9.26 57.1393 10.52C57.8793 11.76 58.2493 13.25 58.2493 14.99C58.2493 15.17 58.2393 15.38 58.2193 15.62C58.1993 15.84 58.1793 16.05 58.1593 16.25H45.0493V13.52H55.6993L53.8993 14.33C53.8993 13.49 53.7293 12.76 53.3893 12.14C53.0493 11.52 52.5793 11.04 51.9793 10.7C51.3793 10.34 50.6793 10.16 49.8793 10.16C49.0793 10.16 48.3693 10.34 47.7493 10.7C47.1493 11.04 46.6793 11.53 46.3393 12.17C45.9993 12.79 45.8293 13.53 45.8293 14.39V15.11C45.8293 15.99 46.0193 16.77 46.3993 17.45C46.7993 18.11 47.3493 18.62 48.0493 18.98C48.7693 19.32 49.6093 19.49 50.5693 19.49C51.4293 19.49 52.1793 19.36 52.8193 19.1C53.4793 18.84 54.0793 18.45 54.6193 17.93L57.1093 20.63C56.3693 21.47 55.4393 22.12 54.3193 22.58C53.1993 23.02 51.9093 23.24 50.4493 23.24ZM61.3651 23V6.86H65.8351V11.42L65.2051 10.1C65.6851 8.96 66.4551 8.1 67.5151 7.52C68.5751 6.92 69.8651 6.62 71.3851 6.62V10.94C71.1851 10.92 71.0051 10.91 70.8451 10.91C70.6851 10.89 70.5151 10.88 70.3351 10.88C69.0551 10.88 68.0151 11.25 67.2151 11.99C66.4351 12.71 66.0451 13.84 66.0451 15.38V23H61.3651ZM84.0071 6.62C85.2871 6.62 86.4271 6.88 87.4271 7.4C88.4471 7.9 89.2471 8.68 89.8271 9.74C90.4071 10.78 90.6971 12.12 90.6971 13.76V23H86.0171V14.48C86.0171 13.18 85.7271 12.22 85.1471 11.6C84.5871 10.98 83.7871 10.67 82.7471 10.67C82.0071 10.67 81.3371 10.83 80.7371 11.15C80.1571 11.45 79.6971 11.92 79.3571 12.56C79.0371 13.2 78.8771 14.02 78.8771 15.02V23H74.1971V6.86H78.6671V11.33L77.8271 9.98C78.4071 8.9 79.2371 8.07 80.3171 7.49C81.3971 6.91 82.6271 6.62 84.0071 6.62ZM104.839 23V19.85L104.539 19.16V13.52C104.539 12.52 104.229 11.74 103.609 11.18C103.009 10.62 102.079 10.34 100.819 10.34C99.9593 10.34 99.1093 10.48 98.2693 10.76C97.4493 11.02 96.7493 11.38 96.1693 11.84L94.4893 8.57C95.3693 7.95 96.4293 7.47 97.6693 7.13C98.9093 6.79 100.169 6.62 101.449 6.62C103.909 6.62 105.819 7.2 107.179 8.36C108.539 9.52 109.219 11.33 109.219 13.79V23H104.839ZM99.9193 23.24C98.6593 23.24 97.5793 23.03 96.6793 22.61C95.7793 22.17 95.0893 21.58 94.6093 20.84C94.1293 20.1 93.8893 19.27 93.8893 18.35C93.8893 17.39 94.1193 16.55 94.5793 15.83C95.0593 15.11 95.8093 14.55 96.8293 14.15C97.8493 13.73 99.1793 13.52 100.819 13.52H105.109V16.25H101.329C100.229 16.25 99.4693 16.43 99.0493 16.79C98.6493 17.15 98.4493 17.6 98.4493 18.14C98.4493 18.74 98.6793 19.22 99.1393 19.58C99.6193 19.92 100.269 20.09 101.089 20.09C101.869 20.09 102.569 19.91 103.189 19.55C103.809 19.17 104.259 18.62 104.539 17.9L105.259 20.06C104.919 21.1 104.299 21.89 103.399 22.43C102.499 22.97 101.339 23.24 99.9193 23.24Z" fill="#F0EFEF"/>
</svg>
