<svg width="123" height="31" viewBox="0 0 123 31" fill="none" xmlns="http://www.w3.org/2000/svg">
<path d="M47.7156 18.0078C47.5256 18.1967 47.2501 18.3478 46.8892 18.4612C46.5282 18.5745 46.0057 18.6973 45.3218 18.8296C44.2578 19.0374 43.5264 19.3019 43.1274 19.623C42.7284 19.9442 42.5289 20.4071 42.5289 21.0116C42.5289 22.0507 43.1274 22.5702 44.3243 22.5702C44.7993 22.5702 45.2363 22.4947 45.6352 22.3435C46.0532 22.1735 46.4047 21.9562 46.6897 21.6917C46.9937 21.4084 47.2311 21.0872 47.4021 20.7282C47.5921 20.3504 47.6871 19.9537 47.6871 19.538L47.7156 18.0078ZM47.9721 25.2057C47.8581 24.8467 47.7821 24.0627 47.7441 23.5904C47.3071 24.0816 46.7277 24.4783 46.0057 24.7806C45.2838 25.064 44.4478 25.2057 43.4979 25.2057C41.883 25.2057 40.6956 24.8562 39.9356 24.1572C39.1947 23.4393 38.8242 22.5136 38.8242 21.38C38.8242 20.3787 38.9857 19.5853 39.3087 18.9996C39.6316 18.395 40.0781 17.9227 40.6481 17.5827C41.218 17.2426 41.8925 16.997 42.6714 16.8459C43.4694 16.6759 44.3338 16.5247 45.2648 16.3925C46.1957 16.2602 46.8227 16.0902 47.1456 15.8824C47.4686 15.6557 47.6301 15.2967 47.6301 14.8055C47.6301 14.3521 47.4116 14.0026 46.9747 13.757C46.5567 13.4925 45.9867 13.3603 45.2648 13.3603C44.4098 13.3603 43.7924 13.5492 43.4124 13.927C43.0514 14.3049 42.8234 14.8055 42.7284 15.429H39.2802C39.2992 14.7111 39.4131 14.0498 39.6221 13.4453C39.8501 12.8407 40.2016 12.3212 40.6766 11.8867C41.1705 11.4522 41.807 11.1215 42.5859 10.8948C43.3649 10.6492 44.3148 10.5264 45.4358 10.5264C46.5377 10.5264 47.4686 10.6492 48.2286 10.8948C49.0075 11.1404 49.625 11.4994 50.081 11.9717C50.5559 12.4251 50.8979 13.0013 51.1069 13.7003C51.3159 14.3804 51.4204 15.155 51.4204 16.0241V25.2057H47.9721Z" fill="white" fill-opacity="0.5"/>
<path d="M53.0547 25.2057V5.79395H56.7595V25.2057H53.0547Z" fill="white" fill-opacity="0.5"/>
<path d="M58.3984 25.2057V10.8948H62.1032V25.2057H58.3984ZM58.3984 9.22289V5.79395H62.1032V9.22289H58.3984Z" fill="white" fill-opacity="0.5"/>
<path d="M76.4202 19.7931C76.3253 20.6054 76.0878 21.3422 75.7078 22.0035C75.3468 22.6647 74.8813 23.2315 74.3114 23.7038C73.7414 24.1761 73.086 24.5445 72.345 24.809C71.6231 25.0734 70.8346 25.2057 69.9797 25.2057C69.0297 25.2057 68.1558 25.0546 67.3578 24.7523C66.5789 24.4311 65.9044 23.9588 65.3345 23.3354C64.7645 22.693 64.318 21.909 63.9951 20.9833C63.6911 20.0387 63.5391 18.9429 63.5391 17.696C63.5391 16.4491 63.6911 15.3723 63.9951 14.4655C64.318 13.5586 64.7645 12.8218 65.3345 12.2551C65.9044 11.6694 66.5884 11.2349 67.3863 10.9515C68.2033 10.6681 69.1057 10.5264 70.0937 10.5264C71.0056 10.5264 71.832 10.6492 72.573 10.8948C73.3329 11.1404 73.9884 11.4994 74.5394 11.9717C75.1093 12.444 75.5558 13.0108 75.8788 13.672C76.2018 14.3332 76.3917 15.07 76.4487 15.8824H72.7155C72.6205 15.1645 72.326 14.6072 71.832 14.2104C71.3571 13.7948 70.7681 13.587 70.0652 13.587C69.6662 13.587 69.2957 13.6531 68.9537 13.7853C68.6118 13.9176 68.3078 14.1443 68.0418 14.4655C67.7948 14.7677 67.5953 15.1834 67.4433 15.7123C67.2913 16.2224 67.2153 16.8553 67.2153 17.611C67.2153 19.1413 67.4908 20.2748 68.0418 21.0116C68.5928 21.7484 69.2292 22.1168 69.9512 22.1168C70.6731 22.1168 71.2906 21.9184 71.8035 21.5217C72.3165 21.125 72.611 20.5488 72.687 19.7931H76.4202Z" fill="white" fill-opacity="0.5"/>
<path d="M84.4131 22.1168C86.674 22.1168 87.8044 20.6999 87.8044 17.8661C87.8044 15.0511 86.674 13.6436 84.4131 13.6436C82.1523 13.6436 81.0218 15.0511 81.0218 17.8661C81.0218 20.6999 82.1523 22.1168 84.4131 22.1168ZM84.4131 25.2057C83.2732 25.2057 82.2568 25.0262 81.3638 24.6673C80.4709 24.3083 79.7109 23.8077 79.084 23.1653C78.476 22.523 78.0105 21.7484 77.6876 20.8416C77.3646 19.9348 77.2031 18.9429 77.2031 17.8661C77.2031 16.7703 77.3646 15.769 77.6876 14.8622C78.0295 13.9554 78.514 13.1808 79.141 12.5385C79.7679 11.8961 80.5184 11.4049 81.3923 11.0649C82.2853 10.7059 83.2922 10.5264 84.4131 10.5264C85.515 10.5264 86.503 10.7059 87.3769 11.0649C88.2509 11.4049 88.9918 11.8961 89.5998 12.5385C90.2267 13.1619 90.7017 13.927 91.0247 14.8339C91.3667 15.7407 91.5377 16.7514 91.5377 17.8661C91.5377 18.9807 91.3667 19.9914 91.0247 20.8983C90.7017 21.7862 90.2267 22.5513 89.5998 23.1937C88.9918 23.836 88.2414 24.3366 87.3484 24.6956C86.4745 25.0357 85.496 25.2057 84.4131 25.2057Z" fill="white" fill-opacity="0.5"/>
<path d="M109.323 25.2057V16.3925C109.323 15.5423 109.123 14.8528 108.724 14.3238C108.325 13.7948 107.793 13.5303 107.129 13.5303C106.445 13.5303 105.875 13.8137 105.419 14.3804C104.982 14.9472 104.763 15.6557 104.763 16.5058V25.2057H101.058V16.4491C101.058 15.8824 101.02 15.4195 100.944 15.0606C100.868 14.7016 100.735 14.4182 100.545 14.2104C100.374 14.0026 100.146 13.8609 99.861 13.7853C99.576 13.6909 99.234 13.6436 98.8351 13.6436C97.3342 13.6436 96.5837 14.5505 96.5837 16.3641V25.2057H92.8789V10.8948H96.3557V12.9352C96.8307 12.0095 97.4006 11.3766 98.0656 11.0365C98.7306 10.6965 99.5285 10.5264 100.46 10.5264C100.935 10.5264 101.353 10.5642 101.714 10.6398C102.094 10.7154 102.426 10.8476 102.711 11.0365C103.015 11.2066 103.3 11.4333 103.566 11.7166C103.832 12 104.098 12.3401 104.364 12.7368C104.744 11.9622 105.248 11.4049 105.875 11.0649C106.502 10.7059 107.262 10.5264 108.154 10.5264C108.857 10.5264 109.503 10.6492 110.092 10.8948C110.681 11.1215 111.185 11.4522 111.603 11.8867C112.021 12.3023 112.344 12.7935 112.572 13.3603C112.819 13.927 112.942 14.5316 112.942 15.1739V25.2057H109.323Z" fill="white" fill-opacity="0.5"/>
<path d="M27.9074 24.9303L16.5423 18.1678C16.1417 17.9295 15.8929 17.5071 15.8826 17.0479L15.5902 4.01947C15.559 2.62823 17.4402 2.11236 18.1501 3.31751L22.1321 10.0777C22.2493 10.2768 22.3126 10.502 22.3158 10.7318L22.3524 13.3752C22.3589 13.8426 22.6125 14.2731 23.0222 14.5123L25.3395 15.8651C25.5409 15.9827 25.7083 16.149 25.8255 16.3481L29.8076 23.1083C30.5174 24.3135 29.121 25.6524 27.9074 24.9303Z" fill="#C3191F"/>
<path d="M14.1172 17.0479L14.4096 4.01947C14.4408 2.62823 12.5596 2.11236 11.8497 3.31751L7.86773 10.0777C7.75048 10.2768 7.68724 10.502 7.68405 10.7318L7.64736 13.3752C7.64088 13.8426 7.38728 14.2731 6.97759 14.5123L4.66035 15.8651C4.45887 15.9827 4.29151 16.149 4.17426 16.3481L0.192246 23.1083C-0.517625 24.3135 0.878769 25.6524 2.09239 24.9303L13.4575 18.1678C13.8581 17.9295 14.1069 17.5071 14.1172 17.0479Z" fill="#C3191F"/>
<path d="M14.415 19.567L2.75749 25.833C1.51264 26.5022 1.99745 28.3569 3.41719 28.3569H11.3812C11.6157 28.3569 11.8463 28.298 12.051 28.1858L14.4049 26.8953C14.8211 26.6671 15.3283 26.6671 15.7444 26.8953L18.0984 28.1858C18.303 28.298 18.5336 28.3569 18.7681 28.3569H26.7322C28.1519 28.3569 28.6367 26.5022 27.3919 25.833L15.7344 19.567C15.3234 19.3462 14.8259 19.3462 14.415 19.567Z" fill="#C3191F"/>
<path d="M119.119 21.6758H115.59V25.2052H119.119V21.6758Z" fill="#C3191F"/>
</svg>
